<svg version="1.0" xmlns="http://www.w3.org/2000/svg" width="682.667" height="682.667" viewBox="0 0 512 512"><path d="M169.3 1.5c-9.7 2.7-17.4 7.3-25.9 15.9-6.6 6.6-9 9.9-12.8 17.6-7.1 14.6-8.9 22.7-8.9 40s1.8 25.4 8.9 40c3.8 7.7 6.2 11 12.8 17.6 23.2 23.3 52 23.3 75.2 0 6.6-6.6 9-9.9 12.8-17.6 7.1-14.6 8.9-22.7 8.9-40s-1.8-25.4-8.9-40c-3.8-7.7-6.2-11-12.8-17.6-14.8-14.9-32.3-20.5-49.3-15.9zm150 0c-9.7 2.7-17.4 7.3-25.9 15.9-6.6 6.6-9 9.9-12.8 17.6-7.1 14.6-8.9 22.7-8.9 40s1.8 25.4 8.9 40c3.8 7.7 6.2 11 12.8 17.6 23.2 23.3 52 23.3 75.2 0 6.6-6.6 9-9.9 12.8-17.6 7.1-14.6 8.9-22.7 8.9-40s-1.8-25.4-8.9-40c-3.8-7.7-6.2-11-12.8-17.6-14.8-14.9-32.3-20.5-49.3-15.9zm-271 121c-9.7 2.7-17.4 7.3-25.9 15.9-6.6 6.6-9 9.9-12.8 17.6C2.5 170.6.7 178.7.7 196s1.8 25.4 8.9 40c3.8 7.7 6.2 11 12.8 17.6 23.2 23.3 52 23.3 75.2 0 6.6-6.6 9-9.9 12.8-17.6 7.1-14.6 8.9-22.7 8.9-40s-1.8-25.4-8.9-40c-3.8-7.7-6.2-11-12.8-17.6-14.8-14.9-32.3-20.5-49.3-15.9zm392 0c-9.7 2.7-17.4 7.3-25.9 15.9-6.6 6.6-9 9.9-12.8 17.6-7.1 14.6-8.9 22.7-8.9 40s1.8 25.4 8.9 40c10.3 20.8 30.7 35 50.4 35 13.5 0 26-5.8 37.6-17.4 6.6-6.6 9-9.9 12.8-17.6 7.1-14.6 8.9-22.7 8.9-40s-1.8-25.4-8.9-40c-3.8-7.7-6.2-11-12.8-17.6-14.8-14.9-32.3-20.5-49.3-15.9zm-200.8 90.1c-22.9 3.2-31.4 5.1-44.9 10.4-16.5 6.5-29.4 15-41.5 27.3-12.3 12.6-19.8 25.4-26.2 45-6.8 20.6-8.7 23.2-28.4 38.9-23 18.3-32.5 30.8-36 47.3-4.4 21 2.3 51 16.6 74.1 7 11.4 24.4 29.3 35.4 36.4 32.2 20.8 71 25.5 106.5 12.8 19.2-6.9 23.9-7.9 35-7.9s15.7 1 35 8c14.5 5.2 21.9 6.4 39.5 6.5 21.1 0 35-2.9 52-11 18.8-8.9 39.7-27.4 50.4-44.8 14.3-23.1 21-53.1 16.6-74.1-3.5-16.5-13-29-36-47.3-19.7-15.7-21.6-18.3-28.4-38.9-6.4-19.6-13.9-32.4-26.2-45-24.3-24.8-56.1-37-98.9-37.8-9.6-.2-18.8-.1-20.5.1z"/></svg>