<?xml version="1.0" standalone="no"?>
<!DOCTYPE svg PUBLIC "-//W3C//DTD SVG 20010904//EN"
 "http://www.w3.org/TR/2001/REC-SVG-20010904/DTD/svg10.dtd">
<svg version="1.0" xmlns="http://www.w3.org/2000/svg"
 width="512.000000pt" height="512.000000pt" viewBox="0 0 512.000000 512.000000"
 preserveAspectRatio="xMidYMid meet">
<metadata>
Created by potrace 1.14, written by Peter Selinger 2001-2017
</metadata>
<g transform="translate(0.000000,512.000000) scale(0.100000,-0.100000)"
fill="#000000" stroke="none">
<path d="M1692 5105 c-162 -45 -305 -170 -391 -342 -125 -251 -116 -592 22
-828 80 -137 190 -234 322 -285 49 -19 80 -24 165 -24 92 0 113 3 175 28 248
100 412 367 421 686 8 306 -115 564 -336 705 -100 63 -269 90 -378 60z"/>
<path d="M3193 5105 c-275 -74 -466 -356 -479 -704 -6 -161 22 -295 92 -431
44 -87 63 -114 125 -177 76 -78 176 -138 264 -160 47 -12 184 -10 234 3 323
84 540 496 466 888 -22 115 -24 124 -57 199 -82 186 -210 312 -380 373 -59 22
-200 26 -265 9z"/>
<path d="M515 3904 c-227 -55 -395 -224 -474 -479 -31 -98 -36 -142 -34 -290
2 -146 27 -258 85 -370 94 -183 242 -309 403 -344 71 -15 199 -6 265 18 218
80 385 303 428 571 14 91 5 290 -17 374 -83 311 -297 512 -556 522 -44 1 -89
1 -100 -2z"/>
<path d="M4389 3890 c-214 -63 -384 -264 -445 -525 -19 -81 -26 -269 -13 -341
5 -27 11 -58 13 -69 25 -134 120 -304 226 -403 53 -50 165 -109 243 -128 202
-49 428 51 563 250 44 65 101 197 119 276 20 86 27 270 14 350 -45 279 -214
508 -434 584 -78 27 -207 30 -286 6z"/>
<path d="M2419 2996 c-2 -2 -33 -6 -69 -9 -36 -3 -101 -13 -145 -22 -44 -9
-91 -18 -105 -21 -58 -12 -241 -88 -315 -131 -263 -152 -418 -346 -516 -645
-68 -206 -88 -233 -286 -391 -150 -120 -222 -192 -278 -277 -70 -108 -90 -187
-89 -350 2 -375 216 -749 549 -963 187 -119 383 -177 620 -182 181 -3 320 21
476 85 100 40 207 63 298 62 123 -1 151 -7 299 -63 320 -123 662 -114 967 26
409 188 692 635 680 1075 -6 209 -89 361 -284 518 -25 20 -48 39 -51 42 -3 3
-33 27 -68 54 -134 102 -191 178 -232 311 -111 360 -301 590 -610 738 -72 34
-227 90 -280 101 -52 10 -136 25 -175 31 -47 7 -380 16 -386 11z"/>
</g>
</svg>
